<?xml version="1.0" encoding="UTF-8"?>
<svg width="81px" height="81px" viewBox="0 0 81 81" version="1.1" xmlns="http://www.w3.org/2000/svg" xmlns:xlink="http://www.w3.org/1999/xlink">
    <!-- Generator: Sketch 43.2 (39069) - http://www.bohemiancoding.com/sketch -->
    <title>AMI</title>
    <desc>Created with Sketch.</desc>
    <defs>
        <circle id="path-1" cx="54.5" cy="38.5" r="19.5"></circle>
    </defs>
    <g id="Page-1" stroke="none" stroke-width="1" fill="none" fill-rule="evenodd">
        <g id="AMI">
            <g id="网点大" transform="translate(37.760931, 38.760931) rotate(-315.000000) translate(-37.760931, -38.760931) translate(-8.739069, -7.739069)" fill="#23454D">
                <g id="网点2-copy" transform="translate(49.500000, 61.500000) rotate(-270.000000) translate(-49.500000, -61.500000) translate(48.000000, 60.000000)">
                    <circle id="Oval-3-Copy-51" cx="1.5" cy="1.5" r="1.5"></circle>
                </g>
                <g id="网点2-copy" transform="translate(55.500000, 61.500000) rotate(-270.000000) translate(-55.500000, -61.500000) translate(54.000000, 60.000000)">
                    <circle id="Oval-3-Copy-51" cx="1.5" cy="1.5" r="1.5"></circle>
                </g>
                <g id="网点2-copy" transform="translate(49.500000, 67.500000) rotate(-270.000000) translate(-49.500000, -67.500000) translate(48.000000, 66.000000)">
                    <circle id="Oval-3-Copy-51" cx="1.5" cy="1.5" r="1.5"></circle>
                </g>
                <g id="网点2-copy" transform="translate(55.500000, 67.500000) rotate(-270.000000) translate(-55.500000, -67.500000) translate(54.000000, 66.000000)">
                    <circle id="Oval-3-Copy-51" cx="1.5" cy="1.5" r="1.5"></circle>
                </g>
                <g id="网点2-copy" transform="translate(61.500000, 61.500000) rotate(-270.000000) translate(-61.500000, -61.500000) translate(60.000000, 60.000000)">
                    <circle id="Oval-3-Copy-51" cx="1.5" cy="1.5" r="1.5"></circle>
                </g>
                <g id="网点2-copy" transform="translate(67.500000, 61.500000) rotate(-270.000000) translate(-67.500000, -61.500000) translate(66.000000, 60.000000)">
                    <circle id="Oval-3-Copy-51" cx="1.5" cy="1.5" r="1.5"></circle>
                </g>
                <g id="网点2-copy" transform="translate(61.500000, 67.500000) rotate(-270.000000) translate(-61.500000, -67.500000) translate(60.000000, 66.000000)">
                    <circle id="Oval-3-Copy-51" cx="1.5" cy="1.5" r="1.5"></circle>
                </g>
                <g id="网点2-copy" transform="translate(49.500000, 49.500000) rotate(-270.000000) translate(-49.500000, -49.500000) translate(48.000000, 48.000000)">
                    <circle id="Oval-3-Copy-51" cx="1.5" cy="1.5" r="1.5"></circle>
                </g>
                <g id="网点2-copy" transform="translate(55.500000, 49.500000) rotate(-270.000000) translate(-55.500000, -49.500000) translate(54.000000, 48.000000)">
                    <circle id="Oval-3-Copy-51" cx="1.5" cy="1.5" r="1.5"></circle>
                </g>
                <g id="网点2-copy" transform="translate(49.500000, 55.500000) rotate(-270.000000) translate(-49.500000, -55.500000) translate(48.000000, 54.000000)">
                    <circle id="Oval-3-Copy-51" cx="1.5" cy="1.5" r="1.5"></circle>
                </g>
                <g id="网点2-copy" transform="translate(55.500000, 55.500000) rotate(-270.000000) translate(-55.500000, -55.500000) translate(54.000000, 54.000000)">
                    <circle id="Oval-3-Copy-51" cx="1.5" cy="1.5" r="1.5"></circle>
                </g>
                <g id="网点2-copy" transform="translate(61.500000, 49.500000) rotate(-270.000000) translate(-61.500000, -49.500000) translate(60.000000, 48.000000)">
                    <circle id="Oval-3-Copy-51" cx="1.5" cy="1.5" r="1.5"></circle>
                </g>
                <g id="网点2-copy" transform="translate(67.500000, 49.500000) rotate(-270.000000) translate(-67.500000, -49.500000) translate(66.000000, 48.000000)">
                    <circle id="Oval-3-Copy-51" cx="1.5" cy="1.5" r="1.5"></circle>
                </g>
                <g id="网点2-copy" transform="translate(61.500000, 55.500000) rotate(-270.000000) translate(-61.500000, -55.500000) translate(60.000000, 54.000000)">
                    <circle id="Oval-3-Copy-51" cx="1.5" cy="1.5" r="1.5"></circle>
                </g>
                <g id="网点2-copy" transform="translate(67.500000, 55.500000) rotate(-270.000000) translate(-67.500000, -55.500000) translate(66.000000, 54.000000)">
                    <circle id="Oval-3-Copy-51" cx="1.5" cy="1.5" r="1.5"></circle>
                </g>
                <g id="网点2-copy" transform="translate(73.500000, 49.500000) rotate(-270.000000) translate(-73.500000, -49.500000) translate(72.000000, 48.000000)">
                    <circle id="Oval-3-Copy-51" cx="1.5" cy="1.5" r="1.5"></circle>
                </g>
                <g id="网点2-copy" transform="translate(73.500000, 55.500000) rotate(-270.000000) translate(-73.500000, -55.500000) translate(72.000000, 54.000000)">
                    <circle id="Oval-3-Copy-51" cx="1.5" cy="1.5" r="1.5"></circle>
                </g>
                <g id="网点2-copy" transform="translate(19.500000, 61.500000) rotate(-270.000000) translate(-19.500000, -61.500000) translate(18.000000, 60.000000)">
                    <circle id="Oval-3-Copy-51" cx="1.5" cy="1.5" r="1.5"></circle>
                </g>
                <g id="网点2-copy" transform="translate(13.500000, 49.500000) rotate(-270.000000) translate(-13.500000, -49.500000) translate(12.000000, 48.000000)">
                    <circle id="Oval-3-Copy-51" cx="1.5" cy="1.5" r="1.5"></circle>
                </g>
                <g id="网点2-copy" transform="translate(19.500000, 49.500000) rotate(-270.000000) translate(-19.500000, -49.500000) translate(18.000000, 48.000000)">
                    <circle id="Oval-3-Copy-51" cx="1.5" cy="1.5" r="1.5"></circle>
                </g>
                <g id="网点2-copy" transform="translate(13.500000, 55.500000) rotate(-270.000000) translate(-13.500000, -55.500000) translate(12.000000, 54.000000)">
                    <circle id="Oval-3-Copy-51" cx="1.5" cy="1.5" r="1.5"></circle>
                </g>
                <g id="网点2-copy" transform="translate(19.500000, 55.500000) rotate(-270.000000) translate(-19.500000, -55.500000) translate(18.000000, 54.000000)">
                    <circle id="Oval-3-Copy-51" cx="1.5" cy="1.5" r="1.5"></circle>
                </g>
                <g id="网点2-copy" transform="translate(25.500000, 61.500000) rotate(-270.000000) translate(-25.500000, -61.500000) translate(24.000000, 60.000000)">
                    <circle id="Oval-3-Copy-51" cx="1.5" cy="1.5" r="1.5"></circle>
                </g>
                <g id="网点2-copy" transform="translate(31.500000, 61.500000) rotate(-270.000000) translate(-31.500000, -61.500000) translate(30.000000, 60.000000)">
                    <circle id="Oval-3-Copy-51" cx="1.5" cy="1.5" r="1.5"></circle>
                </g>
                <g id="网点2-copy" transform="translate(25.500000, 67.500000) rotate(-270.000000) translate(-25.500000, -67.500000) translate(24.000000, 66.000000)">
                    <circle id="Oval-3-Copy-51" cx="1.5" cy="1.5" r="1.5"></circle>
                </g>
                <g id="网点2-copy" transform="translate(31.500000, 67.500000) rotate(-270.000000) translate(-31.500000, -67.500000) translate(30.000000, 66.000000)">
                    <circle id="Oval-3-Copy-51" cx="1.5" cy="1.5" r="1.5"></circle>
                </g>
                <g id="网点2-copy" transform="translate(37.500000, 61.500000) rotate(-270.000000) translate(-37.500000, -61.500000) translate(36.000000, 60.000000)">
                    <circle id="Oval-3-Copy-51" cx="1.5" cy="1.5" r="1.5"></circle>
                </g>
                <g id="网点2-copy" transform="translate(43.500000, 61.500000) rotate(-270.000000) translate(-43.500000, -61.500000) translate(42.000000, 60.000000)">
                    <circle id="Oval-3-Copy-51" cx="1.5" cy="1.5" r="1.5"></circle>
                </g>
                <g id="网点2-copy" transform="translate(37.500000, 67.500000) rotate(-270.000000) translate(-37.500000, -67.500000) translate(36.000000, 66.000000)">
                    <circle id="Oval-3-Copy-51" cx="1.5" cy="1.5" r="1.5"></circle>
                </g>
                <g id="网点2-copy" transform="translate(43.500000, 67.500000) rotate(-270.000000) translate(-43.500000, -67.500000) translate(42.000000, 66.000000)">
                    <circle id="Oval-3-Copy-51" cx="1.5" cy="1.5" r="1.5"></circle>
                </g>
                <g id="网点2-copy" transform="translate(25.500000, 49.500000) rotate(-270.000000) translate(-25.500000, -49.500000) translate(24.000000, 48.000000)">
                    <circle id="Oval-3-Copy-51" cx="1.5" cy="1.5" r="1.5"></circle>
                </g>
                <g id="网点2-copy" transform="translate(31.500000, 49.500000) rotate(-270.000000) translate(-31.500000, -49.500000) translate(30.000000, 48.000000)">
                    <circle id="Oval-3-Copy-51" cx="1.5" cy="1.5" r="1.5"></circle>
                </g>
                <g id="网点2-copy" transform="translate(25.500000, 55.500000) rotate(-270.000000) translate(-25.500000, -55.500000) translate(24.000000, 54.000000)">
                    <circle id="Oval-3-Copy-51" cx="1.5" cy="1.5" r="1.5"></circle>
                </g>
                <g id="网点2-copy" transform="translate(31.500000, 55.500000) rotate(-270.000000) translate(-31.500000, -55.500000) translate(30.000000, 54.000000)">
                    <circle id="Oval-3-Copy-51" cx="1.5" cy="1.5" r="1.5"></circle>
                </g>
                <g id="网点2-copy" transform="translate(37.500000, 49.500000) rotate(-270.000000) translate(-37.500000, -49.500000) translate(36.000000, 48.000000)">
                    <circle id="Oval-3-Copy-51" cx="1.5" cy="1.5" r="1.5"></circle>
                </g>
                <g id="网点2-copy" transform="translate(43.500000, 49.500000) rotate(-270.000000) translate(-43.500000, -49.500000) translate(42.000000, 48.000000)">
                    <circle id="Oval-3-Copy-51" cx="1.5" cy="1.5" r="1.5"></circle>
                </g>
                <g id="网点2-copy" transform="translate(37.500000, 55.500000) rotate(-270.000000) translate(-37.500000, -55.500000) translate(36.000000, 54.000000)">
                    <circle id="Oval-3-Copy-51" cx="1.5" cy="1.5" r="1.5"></circle>
                </g>
                <g id="网点2-copy" transform="translate(43.500000, 55.500000) rotate(-270.000000) translate(-43.500000, -55.500000) translate(42.000000, 54.000000)">
                    <circle id="Oval-3-Copy-51" cx="1.5" cy="1.5" r="1.5"></circle>
                </g>
                <g id="网点2-copy" transform="translate(49.500000, 37.500000) rotate(-270.000000) translate(-49.500000, -37.500000) translate(48.000000, 36.000000)">
                    <circle id="Oval-3-Copy-51" cx="1.5" cy="1.5" r="1.5"></circle>
                </g>
                <g id="网点2-copy" transform="translate(55.500000, 34.500000) rotate(-270.000000) translate(-55.500000, -34.500000) translate(51.000000, 33.000000)">
                    <circle id="Oval-3-Copy-51" cx="7.5" cy="1.5" r="1.5"></circle>
                    <circle id="Oval-3-Copy-51" cx="1.5" cy="1.5" r="1.5"></circle>
                </g>
                <g id="网点2-copy" transform="translate(49.500000, 43.500000) rotate(-270.000000) translate(-49.500000, -43.500000) translate(48.000000, 42.000000)">
                    <circle id="Oval-3-Copy-51" cx="1.5" cy="1.5" r="1.5"></circle>
                </g>
                <g id="网点2-copy" transform="translate(55.500000, 43.500000) rotate(-270.000000) translate(-55.500000, -43.500000) translate(54.000000, 42.000000)">
                    <circle id="Oval-3-Copy-51" cx="1.5" cy="1.5" r="1.5"></circle>
                </g>
                <g id="网点2-copy" transform="translate(61.500000, 37.500000) rotate(-270.000000) translate(-61.500000, -37.500000) translate(60.000000, 36.000000)">
                    <circle id="Oval-3-Copy-51" cx="1.5" cy="1.5" r="1.5"></circle>
                </g>
                <g id="网点2-copy" transform="translate(67.500000, 37.500000) rotate(-270.000000) translate(-67.500000, -37.500000) translate(66.000000, 36.000000)">
                    <circle id="Oval-3-Copy-51" cx="1.5" cy="1.5" r="1.5"></circle>
                </g>
                <g id="网点2-copy" transform="translate(61.500000, 43.500000) rotate(-270.000000) translate(-61.500000, -43.500000) translate(60.000000, 42.000000)">
                    <circle id="Oval-3-Copy-51" cx="1.5" cy="1.5" r="1.5"></circle>
                </g>
                <g id="网点2-copy" transform="translate(67.500000, 43.500000) rotate(-270.000000) translate(-67.500000, -43.500000) translate(66.000000, 42.000000)">
                    <circle id="Oval-3-Copy-51" cx="1.5" cy="1.5" r="1.5"></circle>
                </g>
                <g id="网点2-copy" transform="translate(49.500000, 31.500000) rotate(-270.000000) translate(-49.500000, -31.500000) translate(48.000000, 30.000000)">
                    <circle id="Oval-3-Copy-51" cx="1.5" cy="1.5" r="1.5"></circle>
                </g>
                <g id="网点2-copy" transform="translate(67.500000, 25.500000) rotate(-270.000000) translate(-67.500000, -25.500000) translate(66.000000, 24.000000)">
                    <circle id="Oval-3-Copy-51" cx="1.5" cy="1.5" r="1.5"></circle>
                </g>
                <g id="网点2-copy" transform="translate(61.500000, 31.500000) rotate(-270.000000) translate(-61.500000, -31.500000) translate(60.000000, 30.000000)">
                    <circle id="Oval-3-Copy-51" cx="1.5" cy="1.5" r="1.5"></circle>
                </g>
                <g id="网点2-copy" transform="translate(67.500000, 31.500000) rotate(-270.000000) translate(-67.500000, -31.500000) translate(66.000000, 30.000000)">
                    <circle id="Oval-3-Copy-51" cx="1.5" cy="1.5" r="1.5"></circle>
                </g>
                <g id="网点2-copy" transform="translate(73.500000, 37.500000) rotate(-270.000000) translate(-73.500000, -37.500000) translate(72.000000, 36.000000)">
                    <circle id="Oval-3-Copy-51" cx="1.5" cy="1.5" r="1.5"></circle>
                </g>
                <g id="网点2-copy" transform="translate(73.500000, 43.500000) rotate(-270.000000) translate(-73.500000, -43.500000) translate(72.000000, 42.000000)">
                    <circle id="Oval-3-Copy-51" cx="1.5" cy="1.5" r="1.5"></circle>
                </g>
                <g id="网点2-copy" transform="translate(73.500000, 25.500000) rotate(-270.000000) translate(-73.500000, -25.500000) translate(72.000000, 24.000000)">
                    <circle id="Oval-3-Copy-51" cx="1.5" cy="1.5" r="1.5"></circle>
                </g>
                <g id="网点2-copy" transform="translate(73.500000, 31.500000) rotate(-270.000000) translate(-73.500000, -31.500000) translate(72.000000, 30.000000)">
                    <circle id="Oval-3-Copy-51" cx="1.5" cy="1.5" r="1.5"></circle>
                </g>
                <g id="网点2-copy" transform="translate(61.500000, 13.500000) rotate(-270.000000) translate(-61.500000, -13.500000) translate(60.000000, 12.000000)">
                    <circle id="Oval-3-Copy-51" cx="1.5" cy="1.5" r="1.5"></circle>
                </g>
                <g id="网点2-copy" transform="translate(67.500000, 13.500000) rotate(-270.000000) translate(-67.500000, -13.500000) translate(66.000000, 12.000000)">
                    <circle id="Oval-3-Copy-51" cx="1.5" cy="1.5" r="1.5"></circle>
                </g>
                <g id="网点2-copy" transform="translate(67.500000, 19.500000) rotate(-270.000000) translate(-67.500000, -19.500000) translate(66.000000, 18.000000)">
                    <circle id="Oval-3-Copy-51" cx="1.5" cy="1.5" r="1.5"></circle>
                </g>
                <g id="网点2-copy" transform="translate(49.500000, 7.500000) rotate(-270.000000) translate(-49.500000, -7.500000) translate(48.000000, 6.000000)">
                    <circle id="Oval-3-Copy-51" cx="1.5" cy="1.5" r="1.5"></circle>
                </g>
                <g id="网点2-copy" transform="translate(55.500000, 7.500000) rotate(-270.000000) translate(-55.500000, -7.500000) translate(54.000000, 6.000000)">
                    <circle id="Oval-3-Copy-51" cx="1.5" cy="1.5" r="1.5"></circle>
                </g>
                <g id="网点2-copy" transform="translate(61.500000, 7.500000) rotate(-270.000000) translate(-61.500000, -7.500000) translate(60.000000, 6.000000)">
                    <circle id="Oval-3-Copy-51" cx="1.5" cy="1.5" r="1.5"></circle>
                </g>
                <g id="网点2-copy" transform="translate(73.500000, 19.500000) rotate(-270.000000) translate(-73.500000, -19.500000) translate(72.000000, 18.000000)">
                    <circle id="Oval-3-Copy-51" cx="1.5" cy="1.5" r="1.5"></circle>
                </g>
                <g id="网点2-copy" transform="translate(19.500000, 37.500000) rotate(-270.000000) translate(-19.500000, -37.500000) translate(18.000000, 36.000000)">
                    <circle id="Oval-3-Copy-51" cx="1.5" cy="1.5" r="1.5"></circle>
                </g>
                <g id="网点2-copy" transform="translate(13.500000, 43.500000) rotate(-270.000000) translate(-13.500000, -43.500000) translate(12.000000, 42.000000)">
                    <circle id="Oval-3-Copy-51" cx="1.5" cy="1.5" r="1.5"></circle>
                </g>
                <g id="网点2-copy" transform="translate(19.500000, 43.500000) rotate(-270.000000) translate(-19.500000, -43.500000) translate(18.000000, 42.000000)">
                    <circle id="Oval-3-Copy-51" cx="1.5" cy="1.5" r="1.5"></circle>
                </g>
                <g id="网点2-copy" transform="translate(25.500000, 37.500000) rotate(-270.000000) translate(-25.500000, -37.500000) translate(24.000000, 36.000000)">
                    <circle id="Oval-3-Copy-51" cx="1.5" cy="1.5" r="1.5"></circle>
                </g>
                <g id="网点2-copy" transform="translate(31.500000, 37.500000) rotate(-270.000000) translate(-31.500000, -37.500000) translate(30.000000, 36.000000)">
                    <circle id="Oval-3-Copy-51" cx="1.5" cy="1.5" r="1.5"></circle>
                </g>
                <g id="网点2-copy" transform="translate(25.500000, 43.500000) rotate(-270.000000) translate(-25.500000, -43.500000) translate(24.000000, 42.000000)">
                    <circle id="Oval-3-Copy-51" cx="1.5" cy="1.5" r="1.5"></circle>
                </g>
                <g id="网点2-copy" transform="translate(31.500000, 43.500000) rotate(-270.000000) translate(-31.500000, -43.500000) translate(30.000000, 42.000000)">
                    <circle id="Oval-3-Copy-51" cx="1.5" cy="1.5" r="1.5"></circle>
                </g>
                <g id="网点2-copy" transform="translate(37.500000, 37.500000) rotate(-270.000000) translate(-37.500000, -37.500000) translate(36.000000, 36.000000)">
                    <circle id="Oval-3-Copy-51" cx="1.5" cy="1.5" r="1.5"></circle>
                </g>
                <g id="网点2-copy" transform="translate(43.500000, 37.500000) rotate(-270.000000) translate(-43.500000, -37.500000) translate(42.000000, 36.000000)">
                    <circle id="Oval-3-Copy-51" cx="1.5" cy="1.5" r="1.5"></circle>
                </g>
                <g id="网点2-copy" transform="translate(37.500000, 43.500000) rotate(-270.000000) translate(-37.500000, -43.500000) translate(36.000000, 42.000000)">
                    <circle id="Oval-3-Copy-51" cx="1.5" cy="1.5" r="1.5"></circle>
                </g>
                <g id="网点2-copy" transform="translate(43.500000, 43.500000) rotate(-270.000000) translate(-43.500000, -43.500000) translate(42.000000, 42.000000)">
                    <circle id="Oval-3-Copy-51" cx="1.5" cy="1.5" r="1.5"></circle>
                </g>
                <g id="网点2-copy" transform="translate(43.500000, 25.500000) rotate(-270.000000) translate(-43.500000, -25.500000) translate(42.000000, 24.000000)">
                    <circle id="Oval-3-Copy-51" cx="1.5" cy="1.5" r="1.5"></circle>
                </g>
                <g id="网点2-copy" transform="translate(43.500000, 31.500000) rotate(-270.000000) translate(-43.500000, -31.500000) translate(42.000000, 30.000000)">
                    <circle id="Oval-3-Copy-51" cx="1.5" cy="1.5" r="1.5"></circle>
                </g>
                <g id="网点2-copy" transform="translate(43.500000, 13.500000) rotate(-270.000000) translate(-43.500000, -13.500000) translate(42.000000, 12.000000)">
                    <circle id="Oval-3-Copy-51" cx="1.5" cy="1.5" r="1.5"></circle>
                </g>
                <g id="网点2-copy" transform="translate(52.500000, 19.500000) rotate(-270.000000) translate(-52.500000, -19.500000) translate(45.000000, 9.000000)">
                    <circle id="Oval-3-Copy-51" cx="7.5" cy="19.5" r="1.5"></circle>
                    <circle id="Oval-3-Copy-51" cx="1.5" cy="13.5" r="1.5"></circle>
                    <circle id="Oval-3-Copy-51" cx="13.5" cy="13.5" r="1.5"></circle>
                    <circle id="Oval-3-Copy-51" cx="7.5" cy="13.5" r="1.5"></circle>
                    <circle id="Oval-3-Copy-51" cx="1.5" cy="7.5" r="1.5"></circle>
                    <circle id="Oval-3-Copy-51" cx="13.5" cy="7.5" r="1.5"></circle>
                    <circle id="Oval-3-Copy-51" cx="7.5" cy="7.5" r="1.5"></circle>
                    <circle id="Oval-3-Copy-51" cx="13.5" cy="1.5" r="1.5"></circle>
                    <circle id="Oval-3-Copy-51" cx="7.5" cy="1.5" r="1.5"></circle>
                </g>
            </g>
            <g id="Group" transform="translate(4.000000, 10.000000)">
                <path d="M37,15 C40.0688446,15 40.7471818,11.7584547 41,11 C42.1344539,7.59663834 47.1116306,0 57,0 C65.6841377,0 74,6.79525495 74,18 C74,41.0855565 49.227168,57 37,57" id="Path-32" stroke="#23454D" stroke-width="3"></path>
                <path d="M0,15 C3.06884464,15 3.74718176,11.7584547 4,11 C5.13445389,7.59663834 10.1116306,0 20,0 C28.6841377,0 37,6.79525495 37,18 C37,41.0855565 12.227168,57 0,57" id="Path-32" stroke="#23454D" stroke-width="3" transform="translate(18.500000, 28.500000) scale(-1, 1) translate(-18.500000, -28.500000) "></path>
                <g id="Oval-6">
                    <use fill="#FFFFFF" fill-rule="evenodd" xlink:href="#path-1"></use>
                    <circle stroke="#23454D" stroke-width="3" cx="54.5" cy="38.5" r="18"></circle>
                </g>
                <path d="M62.5,38.5 L46.5,38.5" id="Line" stroke="#23454D" stroke-width="5" stroke-linecap="square"></path>
            </g>
        </g>
    </g>
</svg>