<?xml version="1.0" encoding="UTF-8"?>
<svg width="81px" height="81px" viewBox="0 0 81 81" version="1.1" xmlns="http://www.w3.org/2000/svg" xmlns:xlink="http://www.w3.org/1999/xlink">
    <!-- Generator: Sketch 43.2 (39069) - http://www.bohemiancoding.com/sketch -->
    <title>cerebral apoplexy</title>
    <desc>Created with Sketch.</desc>
    <defs>
        <circle id="path-1" cx="58.5" cy="52.5" r="19.5"></circle>
    </defs>
    <g id="Page-1" stroke="none" stroke-width="1" fill="none" fill-rule="evenodd">
        <g id="cerebral-apoplexy">
            <g id="Group" transform="translate(-25.500000, -26.000000)">
                <path d="M66,70 C66,70 66,47.2739872 66,39 C66,30.7260128 49,30 53,46" id="Path-33" stroke="#23454D" stroke-width="3" stroke-linecap="round"></path>
                <path d="M66,98 C66,98 66,75.2739872 66,67 C66,58.7260128 49,58 53,74" id="Path-33" stroke="#23454D" stroke-width="3" stroke-linecap="round" transform="translate(59.195291, 79.621329) scale(1, -1) translate(-59.195291, -79.621329) "></path>
                <g id="网点大" transform="translate(66.000000, 65.760931) rotate(-315.000000) translate(-66.000000, -65.760931) translate(19.500000, 19.260931)" fill="#23454D">
                    <g id="网点2-copy" transform="translate(49.500000, 73.500000) rotate(-270.000000) translate(-49.500000, -73.500000) translate(48.000000, 72.000000)">
                        <circle id="Oval-3-Copy-51" cx="1.5" cy="1.5" r="1.5"></circle>
                    </g>
                    <g id="网点2-copy" transform="translate(55.500000, 73.500000) rotate(-270.000000) translate(-55.500000, -73.500000) translate(54.000000, 72.000000)">
                        <circle id="Oval-3-Copy-51" cx="1.5" cy="1.5" r="1.5"></circle>
                    </g>
                    <g id="网点2-copy" transform="translate(49.500000, 79.500000) rotate(-270.000000) translate(-49.500000, -79.500000) translate(48.000000, 78.000000)">
                        <circle id="Oval-3-Copy-51" cx="1.5" cy="1.5" r="1.5"></circle>
                    </g>
                    <g id="网点2-copy" transform="translate(61.500000, 73.500000) rotate(-270.000000) translate(-61.500000, -73.500000) translate(60.000000, 72.000000)">
                        <circle id="Oval-3-Copy-51" cx="1.5" cy="1.5" r="1.5"></circle>
                    </g>
                    <g id="网点2-copy" transform="translate(49.500000, 61.500000) rotate(-270.000000) translate(-49.500000, -61.500000) translate(48.000000, 60.000000)">
                        <circle id="Oval-3-Copy-51" cx="1.5" cy="1.5" r="1.5"></circle>
                    </g>
                    <g id="网点2-copy" transform="translate(55.500000, 61.500000) rotate(-270.000000) translate(-55.500000, -61.500000) translate(54.000000, 60.000000)">
                        <circle id="Oval-3-Copy-51" cx="1.5" cy="1.5" r="1.5"></circle>
                    </g>
                    <g id="网点2-copy" transform="translate(49.500000, 67.500000) rotate(-270.000000) translate(-49.500000, -67.500000) translate(48.000000, 66.000000)">
                        <circle id="Oval-3-Copy-51" cx="1.5" cy="1.5" r="1.5"></circle>
                    </g>
                    <g id="网点2-copy" transform="translate(55.500000, 67.500000) rotate(-270.000000) translate(-55.500000, -67.500000) translate(54.000000, 66.000000)">
                        <circle id="Oval-3-Copy-51" cx="1.5" cy="1.5" r="1.5"></circle>
                    </g>
                    <g id="网点2-copy" transform="translate(61.500000, 61.500000) rotate(-270.000000) translate(-61.500000, -61.500000) translate(60.000000, 60.000000)">
                        <circle id="Oval-3-Copy-51" cx="1.5" cy="1.5" r="1.5"></circle>
                    </g>
                    <g id="网点2-copy" transform="translate(67.500000, 61.500000) rotate(-270.000000) translate(-67.500000, -61.500000) translate(66.000000, 60.000000)">
                        <circle id="Oval-3-Copy-51" cx="1.5" cy="1.5" r="1.5"></circle>
                    </g>
                    <g id="网点2-copy" transform="translate(61.500000, 67.500000) rotate(-270.000000) translate(-61.500000, -67.500000) translate(60.000000, 66.000000)">
                        <circle id="Oval-3-Copy-51" cx="1.5" cy="1.5" r="1.5"></circle>
                    </g>
                    <g id="网点2-copy" transform="translate(67.500000, 67.500000) rotate(-270.000000) translate(-67.500000, -67.500000) translate(66.000000, 66.000000)">
                        <circle id="Oval-3-Copy-51" cx="1.5" cy="1.5" r="1.5"></circle>
                    </g>
                    <g id="网点2-copy" transform="translate(49.500000, 49.500000) rotate(-270.000000) translate(-49.500000, -49.500000) translate(48.000000, 48.000000)">
                        <circle id="Oval-3-Copy-51" cx="1.5" cy="1.5" r="1.5"></circle>
                    </g>
                    <g id="网点2-copy" transform="translate(55.500000, 49.500000) rotate(-270.000000) translate(-55.500000, -49.500000) translate(54.000000, 48.000000)">
                        <circle id="Oval-3-Copy-51" cx="1.5" cy="1.5" r="1.5"></circle>
                    </g>
                    <g id="网点2-copy" transform="translate(49.500000, 55.500000) rotate(-270.000000) translate(-49.500000, -55.500000) translate(48.000000, 54.000000)">
                        <circle id="Oval-3-Copy-51" cx="1.5" cy="1.5" r="1.5"></circle>
                    </g>
                    <g id="网点2-copy" transform="translate(55.500000, 55.500000) rotate(-270.000000) translate(-55.500000, -55.500000) translate(54.000000, 54.000000)">
                        <circle id="Oval-3-Copy-51" cx="1.5" cy="1.5" r="1.5"></circle>
                    </g>
                    <g id="网点2-copy" transform="translate(61.500000, 49.500000) rotate(-270.000000) translate(-61.500000, -49.500000) translate(60.000000, 48.000000)">
                        <circle id="Oval-3-Copy-51" cx="1.5" cy="1.5" r="1.5"></circle>
                    </g>
                    <g id="网点2-copy" transform="translate(67.500000, 49.500000) rotate(-270.000000) translate(-67.500000, -49.500000) translate(66.000000, 48.000000)">
                        <circle id="Oval-3-Copy-51" cx="1.5" cy="1.5" r="1.5"></circle>
                    </g>
                    <g id="网点2-copy" transform="translate(61.500000, 55.500000) rotate(-270.000000) translate(-61.500000, -55.500000) translate(60.000000, 54.000000)">
                        <circle id="Oval-3-Copy-51" cx="1.5" cy="1.5" r="1.5"></circle>
                    </g>
                    <g id="网点2-copy" transform="translate(67.500000, 55.500000) rotate(-270.000000) translate(-67.500000, -55.500000) translate(66.000000, 54.000000)">
                        <circle id="Oval-3-Copy-51" cx="1.5" cy="1.5" r="1.5"></circle>
                    </g>
                    <g id="网点2-copy" transform="translate(73.500000, 61.500000) rotate(-270.000000) translate(-73.500000, -61.500000) translate(72.000000, 60.000000)">
                        <circle id="Oval-3-Copy-51" cx="1.5" cy="1.5" r="1.5"></circle>
                    </g>
                    <g id="网点2-copy" transform="translate(73.500000, 49.500000) rotate(-270.000000) translate(-73.500000, -49.500000) translate(72.000000, 48.000000)">
                        <circle id="Oval-3-Copy-51" cx="1.5" cy="1.5" r="1.5"></circle>
                    </g>
                    <g id="网点2-copy" transform="translate(79.500000, 49.500000) rotate(-270.000000) translate(-79.500000, -49.500000) translate(78.000000, 48.000000)">
                        <circle id="Oval-3-Copy-51" cx="1.5" cy="1.5" r="1.5"></circle>
                    </g>
                    <g id="网点2-copy" transform="translate(73.500000, 55.500000) rotate(-270.000000) translate(-73.500000, -55.500000) translate(72.000000, 54.000000)">
                        <circle id="Oval-3-Copy-51" cx="1.5" cy="1.5" r="1.5"></circle>
                    </g>
                    <g id="网点2-copy" transform="translate(25.500000, 73.500000) rotate(-270.000000) translate(-25.500000, -73.500000) translate(24.000000, 72.000000)">
                        <circle id="Oval-3-Copy-51" cx="1.5" cy="1.5" r="1.5"></circle>
                    </g>
                    <g id="网点2-copy" transform="translate(31.500000, 73.500000) rotate(-270.000000) translate(-31.500000, -73.500000) translate(30.000000, 72.000000)">
                        <circle id="Oval-3-Copy-51" cx="1.5" cy="1.5" r="1.5"></circle>
                    </g>
                    <g id="网点2-copy" transform="translate(37.500000, 73.500000) rotate(-270.000000) translate(-37.500000, -73.500000) translate(36.000000, 72.000000)">
                        <circle id="Oval-3-Copy-51" cx="1.5" cy="1.5" r="1.5"></circle>
                    </g>
                    <g id="网点2-copy" transform="translate(43.500000, 73.500000) rotate(-270.000000) translate(-43.500000, -73.500000) translate(42.000000, 72.000000)">
                        <circle id="Oval-3-Copy-51" cx="1.5" cy="1.5" r="1.5"></circle>
                    </g>
                    <g id="网点2-copy" transform="translate(43.500000, 79.500000) rotate(-270.000000) translate(-43.500000, -79.500000) translate(42.000000, 78.000000)">
                        <circle id="Oval-3-Copy-51" cx="1.5" cy="1.5" r="1.5"></circle>
                    </g>
                    <g id="网点2-copy" transform="translate(19.500000, 61.500000) rotate(-270.000000) translate(-19.500000, -61.500000) translate(18.000000, 60.000000)">
                        <circle id="Oval-3-Copy-51" cx="1.5" cy="1.5" r="1.5"></circle>
                    </g>
                    <g id="网点2-copy" transform="translate(19.500000, 67.500000) rotate(-270.000000) translate(-19.500000, -67.500000) translate(18.000000, 66.000000)">
                        <circle id="Oval-3-Copy-51" cx="1.5" cy="1.5" r="1.5"></circle>
                    </g>
                    <g id="网点2-copy" transform="translate(13.500000, 49.500000) rotate(-270.000000) translate(-13.500000, -49.500000) translate(12.000000, 48.000000)">
                        <circle id="Oval-3-Copy-51" cx="1.5" cy="1.5" r="1.5"></circle>
                    </g>
                    <g id="网点2-copy" transform="translate(19.500000, 49.500000) rotate(-270.000000) translate(-19.500000, -49.500000) translate(18.000000, 48.000000)">
                        <circle id="Oval-3-Copy-51" cx="1.5" cy="1.5" r="1.5"></circle>
                    </g>
                    <g id="网点2-copy" transform="translate(19.500000, 55.500000) rotate(-270.000000) translate(-19.500000, -55.500000) translate(18.000000, 54.000000)">
                        <circle id="Oval-3-Copy-51" cx="1.5" cy="1.5" r="1.5"></circle>
                    </g>
                    <g id="网点2-copy" transform="translate(25.500000, 61.500000) rotate(-270.000000) translate(-25.500000, -61.500000) translate(24.000000, 60.000000)">
                        <circle id="Oval-3-Copy-51" cx="1.5" cy="1.5" r="1.5"></circle>
                    </g>
                    <g id="网点2-copy" transform="translate(31.500000, 61.500000) rotate(-270.000000) translate(-31.500000, -61.500000) translate(30.000000, 60.000000)">
                        <circle id="Oval-3-Copy-51" cx="1.5" cy="1.5" r="1.5"></circle>
                    </g>
                    <g id="网点2-copy" transform="translate(25.500000, 67.500000) rotate(-270.000000) translate(-25.500000, -67.500000) translate(24.000000, 66.000000)">
                        <circle id="Oval-3-Copy-51" cx="1.5" cy="1.5" r="1.5"></circle>
                    </g>
                    <g id="网点2-copy" transform="translate(31.500000, 67.500000) rotate(-270.000000) translate(-31.500000, -67.500000) translate(30.000000, 66.000000)">
                        <circle id="Oval-3-Copy-51" cx="1.5" cy="1.5" r="1.5"></circle>
                    </g>
                    <g id="网点2-copy" transform="translate(37.500000, 61.500000) rotate(-270.000000) translate(-37.500000, -61.500000) translate(36.000000, 60.000000)">
                        <circle id="Oval-3-Copy-51" cx="1.5" cy="1.5" r="1.5"></circle>
                    </g>
                    <g id="网点2-copy" transform="translate(43.500000, 61.500000) rotate(-270.000000) translate(-43.500000, -61.500000) translate(42.000000, 60.000000)">
                        <circle id="Oval-3-Copy-51" cx="1.5" cy="1.5" r="1.5"></circle>
                    </g>
                    <g id="网点2-copy" transform="translate(37.500000, 67.500000) rotate(-270.000000) translate(-37.500000, -67.500000) translate(36.000000, 66.000000)">
                        <circle id="Oval-3-Copy-51" cx="1.5" cy="1.5" r="1.5"></circle>
                    </g>
                    <g id="网点2-copy" transform="translate(43.500000, 67.500000) rotate(-270.000000) translate(-43.500000, -67.500000) translate(42.000000, 66.000000)">
                        <circle id="Oval-3-Copy-51" cx="1.5" cy="1.5" r="1.5"></circle>
                    </g>
                    <g id="网点2-copy" transform="translate(25.500000, 49.500000) rotate(-270.000000) translate(-25.500000, -49.500000) translate(24.000000, 48.000000)">
                        <circle id="Oval-3-Copy-51" cx="1.5" cy="1.5" r="1.5"></circle>
                    </g>
                    <g id="网点2-copy" transform="translate(31.500000, 49.500000) rotate(-270.000000) translate(-31.500000, -49.500000) translate(30.000000, 48.000000)">
                        <circle id="Oval-3-Copy-51" cx="1.5" cy="1.5" r="1.5"></circle>
                    </g>
                    <g id="网点2-copy" transform="translate(25.500000, 55.500000) rotate(-270.000000) translate(-25.500000, -55.500000) translate(24.000000, 54.000000)">
                        <circle id="Oval-3-Copy-51" cx="1.5" cy="1.5" r="1.5"></circle>
                    </g>
                    <g id="网点2-copy" transform="translate(31.500000, 55.500000) rotate(-270.000000) translate(-31.500000, -55.500000) translate(30.000000, 54.000000)">
                        <circle id="Oval-3-Copy-51" cx="1.5" cy="1.5" r="1.5"></circle>
                    </g>
                    <g id="网点2-copy" transform="translate(37.500000, 49.500000) rotate(-270.000000) translate(-37.500000, -49.500000) translate(36.000000, 48.000000)">
                        <circle id="Oval-3-Copy-51" cx="1.5" cy="1.5" r="1.5"></circle>
                    </g>
                    <g id="网点2-copy" transform="translate(43.500000, 49.500000) rotate(-270.000000) translate(-43.500000, -49.500000) translate(42.000000, 48.000000)">
                        <circle id="Oval-3-Copy-51" cx="1.5" cy="1.5" r="1.5"></circle>
                    </g>
                    <g id="网点2-copy" transform="translate(37.500000, 55.500000) rotate(-270.000000) translate(-37.500000, -55.500000) translate(36.000000, 54.000000)">
                        <circle id="Oval-3-Copy-51" cx="1.5" cy="1.5" r="1.5"></circle>
                    </g>
                    <g id="网点2-copy" transform="translate(43.500000, 55.500000) rotate(-270.000000) translate(-43.500000, -55.500000) translate(42.000000, 54.000000)">
                        <circle id="Oval-3-Copy-51" cx="1.5" cy="1.5" r="1.5"></circle>
                    </g>
                    <g id="网点2-copy" transform="translate(49.500000, 37.500000) rotate(-270.000000) translate(-49.500000, -37.500000) translate(48.000000, 36.000000)">
                        <circle id="Oval-3-Copy-51" cx="1.5" cy="1.5" r="1.5"></circle>
                    </g>
                    <g id="网点2-copy" transform="translate(55.500000, 37.500000) rotate(-270.000000) translate(-55.500000, -37.500000) translate(54.000000, 36.000000)">
                        <circle id="Oval-3-Copy-51" cx="1.5" cy="1.5" r="1.5"></circle>
                    </g>
                    <g id="网点2-copy" transform="translate(49.500000, 43.500000) rotate(-270.000000) translate(-49.500000, -43.500000) translate(48.000000, 42.000000)">
                        <circle id="Oval-3-Copy-51" cx="1.5" cy="1.5" r="1.5"></circle>
                    </g>
                    <g id="网点2-copy" transform="translate(55.500000, 43.500000) rotate(-270.000000) translate(-55.500000, -43.500000) translate(54.000000, 42.000000)">
                        <circle id="Oval-3-Copy-51" cx="1.5" cy="1.5" r="1.5"></circle>
                    </g>
                    <g id="网点2-copy" transform="translate(61.500000, 37.500000) rotate(-270.000000) translate(-61.500000, -37.500000) translate(60.000000, 36.000000)">
                        <circle id="Oval-3-Copy-51" cx="1.5" cy="1.5" r="1.5"></circle>
                    </g>
                    <g id="网点2-copy" transform="translate(67.500000, 37.500000) rotate(-270.000000) translate(-67.500000, -37.500000) translate(66.000000, 36.000000)">
                        <circle id="Oval-3-Copy-51" cx="1.5" cy="1.5" r="1.5"></circle>
                    </g>
                    <g id="网点2-copy" transform="translate(61.500000, 43.500000) rotate(-270.000000) translate(-61.500000, -43.500000) translate(60.000000, 42.000000)">
                        <circle id="Oval-3-Copy-51" cx="1.5" cy="1.5" r="1.5"></circle>
                    </g>
                    <g id="网点2-copy" transform="translate(67.500000, 43.500000) rotate(-270.000000) translate(-67.500000, -43.500000) translate(66.000000, 42.000000)">
                        <circle id="Oval-3-Copy-51" cx="1.5" cy="1.5" r="1.5"></circle>
                    </g>
                    <g id="网点2-copy" transform="translate(49.500000, 25.500000) rotate(-270.000000) translate(-49.500000, -25.500000) translate(48.000000, 24.000000)">
                        <circle id="Oval-3-Copy-51" cx="1.5" cy="1.5" r="1.5"></circle>
                    </g>
                    <g id="网点2-copy" transform="translate(55.500000, 25.500000) rotate(-270.000000) translate(-55.500000, -25.500000) translate(54.000000, 24.000000)">
                        <circle id="Oval-3-Copy-51" cx="1.5" cy="1.5" r="1.5"></circle>
                    </g>
                    <g id="网点2-copy" transform="translate(49.500000, 31.500000) rotate(-270.000000) translate(-49.500000, -31.500000) translate(48.000000, 30.000000)">
                        <circle id="Oval-3-Copy-51" cx="1.5" cy="1.5" r="1.5"></circle>
                    </g>
                    <g id="网点2-copy" transform="translate(55.500000, 31.500000) rotate(-270.000000) translate(-55.500000, -31.500000) translate(54.000000, 30.000000)">
                        <circle id="Oval-3-Copy-51" cx="1.5" cy="1.5" r="1.5"></circle>
                    </g>
                    <g id="网点2-copy" transform="translate(61.500000, 25.500000) rotate(-270.000000) translate(-61.500000, -25.500000) translate(60.000000, 24.000000)">
                        <circle id="Oval-3-Copy-51" cx="1.5" cy="1.5" r="1.5"></circle>
                    </g>
                    <g id="网点2-copy" transform="translate(67.500000, 25.500000) rotate(-270.000000) translate(-67.500000, -25.500000) translate(66.000000, 24.000000)">
                        <circle id="Oval-3-Copy-51" cx="1.5" cy="1.5" r="1.5"></circle>
                    </g>
                    <g id="网点2-copy" transform="translate(61.500000, 31.500000) rotate(-270.000000) translate(-61.500000, -31.500000) translate(60.000000, 30.000000)">
                        <circle id="Oval-3-Copy-51" cx="1.5" cy="1.5" r="1.5"></circle>
                    </g>
                    <g id="网点2-copy" transform="translate(67.500000, 31.500000) rotate(-270.000000) translate(-67.500000, -31.500000) translate(66.000000, 30.000000)">
                        <circle id="Oval-3-Copy-51" cx="1.5" cy="1.5" r="1.5"></circle>
                    </g>
                    <g id="网点2-copy" transform="translate(73.500000, 37.500000) rotate(-270.000000) translate(-73.500000, -37.500000) translate(72.000000, 36.000000)">
                        <circle id="Oval-3-Copy-51" cx="1.5" cy="1.5" r="1.5"></circle>
                    </g>
                    <g id="网点2-copy" transform="translate(79.500000, 37.500000) rotate(-270.000000) translate(-79.500000, -37.500000) translate(78.000000, 36.000000)">
                        <circle id="Oval-3-Copy-51" cx="1.5" cy="1.5" r="1.5"></circle>
                    </g>
                    <g id="网点2-copy" transform="translate(73.500000, 43.500000) rotate(-270.000000) translate(-73.500000, -43.500000) translate(72.000000, 42.000000)">
                        <circle id="Oval-3-Copy-51" cx="1.5" cy="1.5" r="1.5"></circle>
                    </g>
                    <g id="网点2-copy" transform="translate(79.500000, 43.500000) rotate(-270.000000) translate(-79.500000, -43.500000) translate(78.000000, 42.000000)">
                        <circle id="Oval-3-Copy-51" cx="1.5" cy="1.5" r="1.5"></circle>
                    </g>
                    <g id="网点2-copy" transform="translate(85.500000, 37.500000) rotate(-270.000000) translate(-85.500000, -37.500000) translate(84.000000, 36.000000)">
                        <circle id="Oval-3-Copy-51" cx="1.5" cy="1.5" r="1.5"></circle>
                    </g>
                    <g id="网点2-copy" transform="translate(85.500000, 43.500000) rotate(-270.000000) translate(-85.500000, -43.500000) translate(84.000000, 42.000000)">
                        <circle id="Oval-3-Copy-51" cx="1.5" cy="1.5" r="1.5"></circle>
                    </g>
                    <g id="网点2-copy" transform="translate(73.500000, 25.500000) rotate(-270.000000) translate(-73.500000, -25.500000) translate(72.000000, 24.000000)">
                        <circle id="Oval-3-Copy-51" cx="1.5" cy="1.5" r="1.5"></circle>
                    </g>
                    <g id="网点2-copy" transform="translate(73.500000, 31.500000) rotate(-270.000000) translate(-73.500000, -31.500000) translate(72.000000, 30.000000)">
                        <circle id="Oval-3-Copy-51" cx="1.5" cy="1.5" r="1.5"></circle>
                    </g>
                    <g id="网点2-copy" transform="translate(79.500000, 31.500000) rotate(-270.000000) translate(-79.500000, -31.500000) translate(78.000000, 30.000000)">
                        <circle id="Oval-3-Copy-51" cx="1.5" cy="1.5" r="1.5"></circle>
                    </g>
                    <g id="网点2-copy" transform="translate(49.500000, 13.500000) rotate(-270.000000) translate(-49.500000, -13.500000) translate(48.000000, 12.000000)">
                        <circle id="Oval-3-Copy-51" cx="1.5" cy="1.5" r="1.5"></circle>
                    </g>
                    <g id="网点2-copy" transform="translate(49.500000, 19.500000) rotate(-270.000000) translate(-49.500000, -19.500000) translate(48.000000, 18.000000)">
                        <circle id="Oval-3-Copy-51" cx="1.5" cy="1.5" r="1.5"></circle>
                    </g>
                    <g id="网点2-copy" transform="translate(55.500000, 19.500000) rotate(-270.000000) translate(-55.500000, -19.500000) translate(54.000000, 18.000000)">
                        <circle id="Oval-3-Copy-51" cx="1.5" cy="1.5" r="1.5"></circle>
                    </g>
                    <g id="网点2-copy" transform="translate(61.500000, 19.500000) rotate(-270.000000) translate(-61.500000, -19.500000) translate(60.000000, 18.000000)">
                        <circle id="Oval-3-Copy-51" cx="1.5" cy="1.5" r="1.5"></circle>
                    </g>
                    <g id="网点2-copy" transform="translate(67.500000, 19.500000) rotate(-270.000000) translate(-67.500000, -19.500000) translate(66.000000, 18.000000)">
                        <circle id="Oval-3-Copy-51" cx="1.5" cy="1.5" r="1.5"></circle>
                    </g>
                    <g id="网点2-copy" transform="translate(19.500000, 37.500000) rotate(-270.000000) translate(-19.500000, -37.500000) translate(18.000000, 36.000000)">
                        <circle id="Oval-3-Copy-51" cx="1.5" cy="1.5" r="1.5"></circle>
                    </g>
                    <g id="网点2-copy" transform="translate(13.500000, 43.500000) rotate(-270.000000) translate(-13.500000, -43.500000) translate(12.000000, 42.000000)">
                        <circle id="Oval-3-Copy-51" cx="1.5" cy="1.5" r="1.5"></circle>
                    </g>
                    <g id="网点2-copy" transform="translate(19.500000, 43.500000) rotate(-270.000000) translate(-19.500000, -43.500000) translate(18.000000, 42.000000)">
                        <circle id="Oval-3-Copy-51" cx="1.5" cy="1.5" r="1.5"></circle>
                    </g>
                    <g id="网点2-copy" transform="translate(19.500000, 31.500000) rotate(-270.000000) translate(-19.500000, -31.500000) translate(18.000000, 30.000000)">
                        <circle id="Oval-3-Copy-51" cx="1.5" cy="1.5" r="1.5"></circle>
                    </g>
                    <g id="网点2-copy" transform="translate(25.500000, 37.500000) rotate(-270.000000) translate(-25.500000, -37.500000) translate(24.000000, 36.000000)">
                        <circle id="Oval-3-Copy-51" cx="1.5" cy="1.5" r="1.5"></circle>
                    </g>
                    <g id="网点2-copy" transform="translate(31.500000, 37.500000) rotate(-270.000000) translate(-31.500000, -37.500000) translate(30.000000, 36.000000)">
                        <circle id="Oval-3-Copy-51" cx="1.5" cy="1.5" r="1.5"></circle>
                    </g>
                    <g id="网点2-copy" transform="translate(25.500000, 43.500000) rotate(-270.000000) translate(-25.500000, -43.500000) translate(24.000000, 42.000000)">
                        <circle id="Oval-3-Copy-51" cx="1.5" cy="1.5" r="1.5"></circle>
                    </g>
                    <g id="网点2-copy" transform="translate(31.500000, 43.500000) rotate(-270.000000) translate(-31.500000, -43.500000) translate(30.000000, 42.000000)">
                        <circle id="Oval-3-Copy-51" cx="1.5" cy="1.5" r="1.5"></circle>
                    </g>
                    <g id="网点2-copy" transform="translate(37.500000, 37.500000) rotate(-270.000000) translate(-37.500000, -37.500000) translate(36.000000, 36.000000)">
                        <circle id="Oval-3-Copy-51" cx="1.5" cy="1.5" r="1.5"></circle>
                    </g>
                    <g id="网点2-copy" transform="translate(43.500000, 37.500000) rotate(-270.000000) translate(-43.500000, -37.500000) translate(42.000000, 36.000000)">
                        <circle id="Oval-3-Copy-51" cx="1.5" cy="1.5" r="1.5"></circle>
                    </g>
                    <g id="网点2-copy" transform="translate(37.500000, 43.500000) rotate(-270.000000) translate(-37.500000, -43.500000) translate(36.000000, 42.000000)">
                        <circle id="Oval-3-Copy-51" cx="1.5" cy="1.5" r="1.5"></circle>
                    </g>
                    <g id="网点2-copy" transform="translate(43.500000, 43.500000) rotate(-270.000000) translate(-43.500000, -43.500000) translate(42.000000, 42.000000)">
                        <circle id="Oval-3-Copy-51" cx="1.5" cy="1.5" r="1.5"></circle>
                    </g>
                    <g id="网点2-copy" transform="translate(25.500000, 25.500000) rotate(-270.000000) translate(-25.500000, -25.500000) translate(24.000000, 24.000000)">
                        <circle id="Oval-3-Copy-51" cx="1.5" cy="1.5" r="1.5"></circle>
                    </g>
                    <g id="网点2-copy" transform="translate(31.500000, 25.500000) rotate(-270.000000) translate(-31.500000, -25.500000) translate(30.000000, 24.000000)">
                        <circle id="Oval-3-Copy-51" cx="1.5" cy="1.5" r="1.5"></circle>
                    </g>
                    <g id="网点2-copy" transform="translate(25.500000, 31.500000) rotate(-270.000000) translate(-25.500000, -31.500000) translate(24.000000, 30.000000)">
                        <circle id="Oval-3-Copy-51" cx="1.5" cy="1.5" r="1.5"></circle>
                    </g>
                    <g id="网点2-copy" transform="translate(31.500000, 31.500000) rotate(-270.000000) translate(-31.500000, -31.500000) translate(30.000000, 30.000000)">
                        <circle id="Oval-3-Copy-51" cx="1.5" cy="1.5" r="1.5"></circle>
                    </g>
                    <g id="网点2-copy" transform="translate(37.500000, 25.500000) rotate(-270.000000) translate(-37.500000, -25.500000) translate(36.000000, 24.000000)">
                        <circle id="Oval-3-Copy-51" cx="1.5" cy="1.5" r="1.5"></circle>
                    </g>
                    <g id="网点2-copy" transform="translate(43.500000, 25.500000) rotate(-270.000000) translate(-43.500000, -25.500000) translate(42.000000, 24.000000)">
                        <circle id="Oval-3-Copy-51" cx="1.5" cy="1.5" r="1.5"></circle>
                    </g>
                    <g id="网点2-copy" transform="translate(37.500000, 31.500000) rotate(-270.000000) translate(-37.500000, -31.500000) translate(36.000000, 30.000000)">
                        <circle id="Oval-3-Copy-51" cx="1.5" cy="1.5" r="1.5"></circle>
                    </g>
                    <g id="网点2-copy" transform="translate(43.500000, 31.500000) rotate(-270.000000) translate(-43.500000, -31.500000) translate(42.000000, 30.000000)">
                        <circle id="Oval-3-Copy-51" cx="1.5" cy="1.5" r="1.5"></circle>
                    </g>
                    <g id="网点2-copy" transform="translate(31.500000, 19.500000) rotate(-270.000000) translate(-31.500000, -19.500000) translate(30.000000, 18.000000)">
                        <circle id="Oval-3-Copy-51" cx="1.5" cy="1.5" r="1.5"></circle>
                    </g>
                    <g id="网点2-copy" transform="translate(43.500000, 13.500000) rotate(-270.000000) translate(-43.500000, -13.500000) translate(42.000000, 12.000000)">
                        <circle id="Oval-3-Copy-51" cx="1.5" cy="1.5" r="1.5"></circle>
                    </g>
                    <g id="网点2-copy" transform="translate(37.500000, 19.500000) rotate(-270.000000) translate(-37.500000, -19.500000) translate(36.000000, 18.000000)">
                        <circle id="Oval-3-Copy-51" cx="1.5" cy="1.5" r="1.5"></circle>
                    </g>
                    <g id="网点2-copy" transform="translate(43.500000, 19.500000) rotate(-270.000000) translate(-43.500000, -19.500000) translate(42.000000, 18.000000)">
                        <circle id="Oval-3-Copy-51" cx="1.5" cy="1.5" r="1.5"></circle>
                    </g>
                </g>
                <path d="" id="Path-34" stroke="#979797" stroke-width="3"></path>
                <path d="M52,40 C49,37 38,38 39,48 C30,53 30,66 30,66" id="Path-35" stroke="#23454D" stroke-width="3"></path>
                <path d="M52,67.4880556 C49,64.4880556 38,65.4880556 39,75.4880556 C30,80.4880556 30,93 30,93" id="Path-35" stroke="#23454D" stroke-width="3" transform="translate(41.000000, 79.500000) scale(1, -1) translate(-41.000000, -79.500000) "></path>
            </g>
            <g id="Group" transform="translate(58.500000, 39.500000) scale(-1, 1) translate(-58.500000, -39.500000) translate(40.500000, 7.000000)" stroke-width="3">
                <path d="M36,37 C36,37 36,14.2739872 36,6 C36,-2.27398724 19,-3 23,13" id="Path-33" stroke="#23454D" stroke-linecap="round"></path>
                <path d="M36,65 C36,65 36,42.2739872 36,34 C36,25.7260128 19,25 23,41" id="Path-33" stroke="#23454D" stroke-linecap="round" transform="translate(29.195291, 46.621329) scale(1, -1) translate(-29.195291, -46.621329) "></path>
                <path d="" id="Path-34" stroke="#979797"></path>
                <path d="M22,7 C19,4 8,5 9,15 C-1.52655666e-16,20 0,33 0,33" id="Path-35" stroke="#23454D"></path>
                <path d="M22,34.4880556 C19,31.4880556 8,32.4880556 9,42.4880556 C-6.27109475e-13,47.4880556 0,60 0,60" id="Path-35" stroke="#23454D" transform="translate(11.000000, 46.500000) scale(1, -1) translate(-11.000000, -46.500000) "></path>
            </g>
            <g id="Oval-6">
                <use fill="#FFFFFF" fill-rule="evenodd" xlink:href="#path-1"></use>
                <circle stroke="#23454D" stroke-width="3" cx="58.5" cy="52.5" r="18"></circle>
            </g>
            <path d="M58.5,44.5 L58.5,51.5" id="Line" stroke="#23454D" stroke-width="5" stroke-linecap="square"></path>
            <rect id="Rectangle-17" fill="#23454D" x="56" y="57" width="5" height="5"></rect>
        </g>
    </g>
</svg>