<?xml version="1.0" encoding="UTF-8"?>
<svg width="81px" height="81px" viewBox="0 0 81 81" version="1.1" xmlns="http://www.w3.org/2000/svg" xmlns:xlink="http://www.w3.org/1999/xlink">
    <!-- Generator: Sketch 43.2 (39069) - http://www.bohemiancoding.com/sketch -->
    <title>cramp</title>
    <desc>Created with Sketch.</desc>
    <defs></defs>
    <g id="Page-1" stroke="none" stroke-width="1" fill="none" fill-rule="evenodd">
        <g id="cramp">
            <path d="M60,5 C60,5 66,17.0371379 66,34 C66,50.9628621 57,67 57,76" id="Path-39" stroke="#23454D" stroke-width="3" stroke-linecap="round"></path>
            <path d="M20.8677686,6 C20.8677686,6 21.8677686,11 22.8677686,28 C23.8677686,45 18.8677686,66 18.8677686,75" id="Path-39" stroke="#23454D" stroke-width="3" stroke-linecap="round" transform="translate(20.933884, 40.500000) scale(-1, 1) translate(-20.933884, -40.500000) "></path>
            <polyline id="Path-38" stroke="#23454D" stroke-width="3" stroke-linecap="round" stroke-linejoin="round" points="47 7 30 39 43.1803399 39 36.0999674 63.0803725 65 29 49.8754845 29 60.9378629 7.9376216"></polyline>
            <g id="网点大" transform="translate(65.760931, 52.760931) rotate(-315.000000) translate(-65.760931, -52.760931) translate(19.260931, 6.260931)" fill="#23454D">
                <g id="网点2-copy" transform="translate(7.500000, 49.500000) rotate(-270.000000) translate(-7.500000, -49.500000) translate(6.000000, 48.000000)">
                    <circle id="Oval-3-Copy-51" cx="1.5" cy="1.5" r="1.5"></circle>
                </g>
                <g id="网点2-copy" transform="translate(13.500000, 49.500000) rotate(-270.000000) translate(-13.500000, -49.500000) translate(12.000000, 48.000000)">
                    <circle id="Oval-3-Copy-51" cx="1.5" cy="1.5" r="1.5"></circle>
                </g>
                <g id="网点2-copy" transform="translate(19.500000, 49.500000) rotate(-270.000000) translate(-19.500000, -49.500000) translate(18.000000, 48.000000)">
                    <circle id="Oval-3-Copy-51" cx="1.5" cy="1.5" r="1.5"></circle>
                </g>
                <g id="网点2-copy" transform="translate(13.500000, 55.500000) rotate(-270.000000) translate(-13.500000, -55.500000) translate(12.000000, 54.000000)">
                    <circle id="Oval-3-Copy-51" cx="1.5" cy="1.5" r="1.5"></circle>
                </g>
                <g id="网点2-copy" transform="translate(25.500000, 61.500000) rotate(-270.000000) translate(-25.500000, -61.500000) translate(24.000000, 60.000000)">
                    <circle id="Oval-3-Copy-51" cx="1.5" cy="1.5" r="1.5"></circle>
                </g>
                <g id="网点2-copy" transform="translate(31.500000, 61.500000) rotate(-270.000000) translate(-31.500000, -61.500000) translate(30.000000, 60.000000)">
                    <circle id="Oval-3-Copy-51" cx="1.5" cy="1.5" r="1.5"></circle>
                </g>
                <g id="网点2-copy" transform="translate(25.500000, 49.500000) rotate(-270.000000) translate(-25.500000, -49.500000) translate(24.000000, 48.000000)">
                    <circle id="Oval-3-Copy-51" cx="1.5" cy="1.5" r="1.5"></circle>
                </g>
                <g id="网点2-copy" transform="translate(25.500000, 55.500000) rotate(-270.000000) translate(-25.500000, -55.500000) translate(24.000000, 54.000000)">
                    <circle id="Oval-3-Copy-51" cx="1.5" cy="1.5" r="1.5"></circle>
                </g>
                <g id="网点2-copy" transform="translate(7.500000, 37.500000) rotate(-270.000000) translate(-7.500000, -37.500000) translate(6.000000, 36.000000)">
                    <circle id="Oval-3-Copy-51" cx="1.5" cy="1.5" r="1.5"></circle>
                </g>
                <g id="网点2-copy" transform="translate(7.500000, 43.500000) rotate(-270.000000) translate(-7.500000, -43.500000) translate(6.000000, 42.000000)">
                    <circle id="Oval-3-Copy-51" cx="1.5" cy="1.5" r="1.5"></circle>
                </g>
                <g id="网点2-copy" transform="translate(13.500000, 37.500000) rotate(-270.000000) translate(-13.500000, -37.500000) translate(12.000000, 36.000000)">
                    <circle id="Oval-3-Copy-51" cx="1.5" cy="1.5" r="1.5"></circle>
                </g>
                <g id="网点2-copy" transform="translate(13.500000, 43.500000) rotate(-270.000000) translate(-13.500000, -43.500000) translate(12.000000, 42.000000)">
                    <circle id="Oval-3-Copy-51" cx="1.5" cy="1.5" r="1.5"></circle>
                </g>
                <g id="网点2-copy" transform="translate(19.500000, 43.500000) rotate(-270.000000) translate(-19.500000, -43.500000) translate(18.000000, 42.000000)">
                    <circle id="Oval-3-Copy-51" cx="1.5" cy="1.5" r="1.5"></circle>
                </g>
                <g id="网点2-copy" transform="translate(7.500000, 25.500000) rotate(-270.000000) translate(-7.500000, -25.500000) translate(6.000000, 24.000000)">
                    <circle id="Oval-3-Copy-51" cx="1.5" cy="1.5" r="1.5"></circle>
                </g>
                <g id="网点2-copy" transform="translate(7.500000, 31.500000) rotate(-270.000000) translate(-7.500000, -31.500000) translate(6.000000, 30.000000)">
                    <circle id="Oval-3-Copy-51" cx="1.5" cy="1.5" r="1.5"></circle>
                </g>
                <g id="网点2-copy" transform="translate(13.500000, 25.500000) rotate(-270.000000) translate(-13.500000, -25.500000) translate(12.000000, 24.000000)">
                    <circle id="Oval-3-Copy-51" cx="1.5" cy="1.5" r="1.5"></circle>
                </g>
                <g id="网点2-copy" transform="translate(13.500000, 31.500000) rotate(-270.000000) translate(-13.500000, -31.500000) translate(12.000000, 30.000000)">
                    <circle id="Oval-3-Copy-51" cx="1.5" cy="1.5" r="1.5"></circle>
                </g>
                <g id="网点2-copy" transform="translate(25.500000, 37.500000) rotate(-270.000000) translate(-25.500000, -37.500000) translate(24.000000, 36.000000)">
                    <circle id="Oval-3-Copy-51" cx="1.5" cy="1.5" r="1.5"></circle>
                </g>
                <g id="网点2-copy" transform="translate(25.500000, 43.500000) rotate(-270.000000) translate(-25.500000, -43.500000) translate(24.000000, 42.000000)">
                    <circle id="Oval-3-Copy-51" cx="1.5" cy="1.5" r="1.5"></circle>
                </g>
            </g>
        </g>
    </g>
</svg>